<svg xmlns="http://www.w3.org/2000/svg" width="1600" height="560" viewBox="0 0 1600 560" role="img" aria-label="ByteProof — AI-powered academic proofreading for Microsoft Word">
  <defs>
    <linearGradient id="bg" x1="0" y1="0" x2="1" y2="1">
      <stop offset="0" stop-color="#0E2419"/>
      <stop offset="0.55" stop-color="#1A3A2A"/>
      <stop offset="1" stop-color="#1F5335"/>
    </linearGradient>
    <radialGradient id="glow" cx="0.5" cy="0.42" r="0.72">
      <stop offset="0" stop-color="#79A88A" stop-opacity="0.32"/>
      <stop offset="1" stop-color="#79A88A" stop-opacity="0"/>
    </radialGradient>
    <pattern id="dots" width="34" height="34" patternUnits="userSpaceOnUse">
      <circle cx="1.5" cy="1.5" r="1.5" fill="#FAF9F3" opacity="0.10"/>
    </pattern>
  </defs>
  <rect width="1600" height="560" fill="url(#bg)"/>
  <rect width="1600" height="560" fill="url(#glow)"/>
  <rect width="1600" height="560" fill="url(#dots)"/>
  <circle cx="1450" cy="80" r="170" fill="none" stroke="#FAF9F3" stroke-opacity="0.08" stroke-width="1.5"/>
  <circle cx="1450" cy="80" r="230" fill="none" stroke="#FAF9F3" stroke-opacity="0.05" stroke-width="1.5"/>
  <circle cx="120" cy="520" r="130" fill="none" stroke="#FAF9F3" stroke-opacity="0.07" stroke-width="1.5"/>
  <circle cx="120" cy="520" r="190" fill="none" stroke="#FAF9F3" stroke-opacity="0.04" stroke-width="1.5"/>
  <svg x="690" y="78" width="220" height="220" viewBox="0 0 1024 1024" overflow="visible">
  <rect x="100" y="100" width="824" height="824" rx="185.4" fill="#FFFFFF"/>
  <g transform="translate(160 160) scale(14.67)" fill="none" stroke="#1A3A2A"
     stroke-width="2.8" stroke-linecap="round" stroke-linejoin="round">
    <path d="M 26.6 10.4 C 26.6 6.7 29.1 5.0 31.7 5.0 C 35.4 5.0 38.0 7.6 38.0 11.2 C 41.2 11.7 43.2 14.5 43.2 17.7 C 43.2 20.3 42.0 22.6 40.0 23.7 C 41.3 25.6 40.8 28.5 38.9 30.2 C 38.7 34.2 35.7 37.5 31.9 38.2 C 31.1 40.8 29.0 42.8 26.6 42.8 Z"/>
    <path d="M 26.6 14.0 H 29.6 L 32.4 16.8"/>
    <path d="M 40.0 26.4 H 38.2 L 36.2 29.0"/>
    <g transform="translate(48 0) scale(-1 1)">
      <path d="M 26.6 10.4 C 26.6 6.7 29.1 5.0 31.7 5.0 C 35.4 5.0 38.0 7.6 38.0 11.2 C 41.2 11.7 43.2 14.5 43.2 17.7 C 43.2 20.3 42.0 22.6 40.0 23.7 C 41.3 25.6 40.8 28.5 38.9 30.2 C 38.7 34.2 35.7 37.5 31.9 38.2 C 31.1 40.8 29.0 42.8 26.6 42.8 Z"/>
      <path d="M 26.6 14.0 H 29.6 L 32.4 16.8"/>
      <path d="M 40.0 26.4 H 38.2 L 36.2 29.0"/>
    </g>
  </g>
  <g transform="translate(160 160) scale(14.67)" fill="#1A3A2A">
    <circle cx="32.4" cy="16.8" r="1.15"/>
    <circle cx="36.2" cy="29.0" r="1.15"/>
    <circle cx="15.6" cy="16.8" r="1.15"/>
    <circle cx="11.8" cy="29.0" r="1.15"/>
  </g>

  </svg>
  <text x="800" y="370" text-anchor="middle" font-family="Georgia, 'Times New Roman', serif" font-size="72" font-weight="700" fill="#FAF9F3" letter-spacing="2">ByteProof</text>
  <text x="800" y="424" text-anchor="middle" font-family="Georgia, 'Times New Roman', serif" font-size="26" fill="#D6E4DB" letter-spacing="0.5">AI-powered academic proofreading for Microsoft Word</text>
  <g font-family="Georgia, 'Times New Roman', serif" font-size="20" fill="#FAF9F3">
    <rect x="476" y="456" width="240" height="46" rx="23" fill="#FAF9F3" fill-opacity="0.08" stroke="#D6E4DB" stroke-opacity="0.65"/>
    <text x="596" y="485" text-anchor="middle">macOS Apple Silicon</text>
    <rect x="740" y="456" width="170" height="46" rx="23" fill="#FAF9F3" fill-opacity="0.08" stroke="#D6E4DB" stroke-opacity="0.65"/>
    <text x="825" y="485" text-anchor="middle">macOS Intel</text>
    <rect x="934" y="456" width="190" height="46" rx="23" fill="#FAF9F3" fill-opacity="0.08" stroke="#D6E4DB" stroke-opacity="0.65"/>
    <text x="1029" y="485" text-anchor="middle">Windows 10/11</text>
  </g>
</svg>